<svg width="153" height="193" viewBox="0 0 153 193" fill="none" xmlns="http://www.w3.org/2000/svg">
<path d="M66.9375 135.1C66.9375 140.89 63.1125 144.75 57.375 144.75C51.6375 144.75 47.8125 140.89 47.8125 135.1C47.8125 129.31 51.6375 125.45 57.375 125.45C63.1125 125.45 66.9375 129.31 66.9375 135.1ZM153 57.9V173.7C153 184.315 144.394 193 133.875 193H19.125C8.60625 193 0 184.315 0 173.7V19.3C0 8.685 8.60625 0 19.125 0H95.625M133.875 125.45H84.15C78.4125 110.01 62.1562 102.29 47.8125 108.08C32.5125 113.87 24.8625 130.275 30.6 144.75C36.3375 159.225 52.5938 167.91 66.9375 162.12C75.5437 159.225 81.2813 152.47 84.15 144.75H95.625V164.05H114.75V144.75H133.875M138.656 67.55L86.0625 14.475V67.55H138.656Z" fill="url(#paint0_linear_2024_3)"/>
<defs>
<linearGradient id="paint0_linear_2024_3" x1="0" y1="0" x2="153" y2="193" gradientUnits="userSpaceOnUse">
<stop offset="0.142305" stop-color="#FF833D"/>
<stop offset="0.379093" stop-color="#DE0000"/>
<stop offset="0.700538" stop-color="#4623D2"/>
<stop offset="0.9999" stop-color="#7C4FFF"/>
<stop offset="1" stop-color="#A180FF"/>
</linearGradient>
</defs>
</svg>
