<svg width="16" height="20" viewBox="0 0 16 20" fill="none" xmlns="http://www.w3.org/2000/svg">
<path d="M8 0L8.117 0.00699997C8.34022 0.0333238 8.54806 0.134079 8.70699 0.293011C8.86592 0.451943 8.96668 0.659783 8.993 0.883L9 1V5L9.005 5.15C9.04078 5.62617 9.24576 6.07383 9.58286 6.41203C9.91996 6.75023 10.3669 6.95666 10.843 6.994L11 7H15L15.117 7.007C15.3402 7.03332 15.5481 7.13408 15.707 7.29301C15.8659 7.45194 15.9667 7.65978 15.993 7.883L16 8V17C16 17.7652 15.7077 18.5015 15.1827 19.0583C14.6578 19.615 13.9399 19.9501 13.176 19.995L13 20H3C2.23479 20 1.49849 19.7077 0.941739 19.1827C0.384993 18.6578 0.0498925 17.9399 0.00500012 17.176L4.66045e-09 17V3C-4.26217e-05 2.23479 0.292325 1.49849 0.817284 0.941739C1.34224 0.384993 2.06011 0.0498925 2.824 0.00500011L3 0H8Z" fill="#8A8080"/>
<path d="M15 5H11L10.999 0.999001L15 5Z" fill="#8A8080"/>
</svg>
