<svg width="24" height="22" viewBox="0 0 24 22" fill="none" xmlns="http://www.w3.org/2000/svg">
<path fill-rule="evenodd" clip-rule="evenodd" d="M24 6.92224C24 10.7458 20.6041 13.8456 16.4162 13.8456C15.653 13.8456 13.913 13.685 13.067 13.0404L12.0087 14.0062C11.3859 14.5749 11.5539 14.7421 11.8311 15.0171C11.9463 15.1326 12.0807 15.2657 12.1851 15.456C12.1851 15.456 13.067 16.5823 12.1851 17.7098C11.6559 18.3533 10.1739 19.2542 8.48195 17.7098L8.12915 18.031C8.12915 18.031 9.18633 19.1585 8.30555 20.286C7.77636 20.9295 6.36519 21.573 5.13042 20.4466L3.89685 21.573C3.04967 22.3463 2.01529 21.8953 1.6049 21.573L0.545322 20.6072C-0.442256 19.7052 0.133732 18.7284 0.545322 18.3522L9.71552 9.98131C9.71552 9.98131 8.83354 8.69432 8.83354 6.92334C8.83354 3.09977 12.2295 0 16.4174 0C20.6053 0 24 3.09977 24 6.92224ZM16.4174 9.33781C17.1173 9.33898 17.7891 9.08529 18.2851 8.63252C18.781 8.17975 19.0605 7.56496 19.0621 6.92334C19.0615 6.60554 18.9926 6.29097 18.8593 5.99758C18.7261 5.7042 18.5311 5.43775 18.2855 5.21344C18.0399 4.98913 17.7485 4.81136 17.428 4.69028C17.1075 4.5692 16.764 4.50718 16.4174 4.50776C16.0707 4.50718 15.7273 4.5692 15.4067 4.69028C15.0862 4.81136 14.7948 4.98913 14.5492 5.21344C14.3037 5.43775 14.1087 5.7042 13.9754 5.99758C13.8422 6.29097 13.7733 6.60554 13.7726 6.92334C13.7742 7.56496 14.0537 8.17975 14.5497 8.63252C15.0456 9.08529 15.7174 9.33898 16.4174 9.33781Z" fill="#03A300"/>
</svg>
