<svg width="1440" height="368" viewBox="0 0 1440 368" fill="none" xmlns="http://www.w3.org/2000/svg">
<rect width="1440" height="368" fill="url(#paint0_radial_2006_344)"/>
<path d="M586.294 128.641H576.962C576.791 127.433 576.443 126.361 575.918 125.423C575.392 124.472 574.717 123.662 573.893 122.994C573.07 122.327 572.118 121.815 571.038 121.46C569.973 121.105 568.815 120.928 567.565 120.928C565.307 120.928 563.339 121.489 561.663 122.611C559.987 123.719 558.688 125.338 557.764 127.469C556.841 129.585 556.379 132.156 556.379 135.182C556.379 138.293 556.841 140.906 557.764 143.023C558.702 145.139 560.009 146.737 561.685 147.817C563.361 148.896 565.3 149.436 567.501 149.436C568.737 149.436 569.881 149.273 570.932 148.946C571.997 148.619 572.942 148.143 573.766 147.518C574.589 146.879 575.271 146.105 575.811 145.196C576.365 144.287 576.749 143.25 576.962 142.085L586.294 142.128C586.053 144.131 585.449 146.062 584.483 147.923C583.531 149.77 582.246 151.425 580.626 152.888C579.021 154.337 577.104 155.487 574.874 156.339C572.658 157.178 570.151 157.597 567.352 157.597C563.46 157.597 559.98 156.716 556.912 154.955C553.858 153.193 551.443 150.643 549.668 147.305C547.906 143.967 547.026 139.926 547.026 135.182C547.026 130.423 547.92 126.375 549.71 123.037C551.5 119.699 553.929 117.156 556.997 115.409C560.065 113.648 563.517 112.767 567.352 112.767C569.881 112.767 572.224 113.122 574.384 113.832C576.557 114.543 578.482 115.58 580.158 116.943C581.834 118.293 583.197 119.947 584.249 121.908C585.314 123.868 585.996 126.112 586.294 128.641ZM592.739 157V124.273H601.816V157H592.739ZM597.299 120.054C595.95 120.054 594.792 119.607 593.826 118.712C592.874 117.803 592.398 116.716 592.398 115.452C592.398 114.202 592.874 113.129 593.826 112.234C594.792 111.325 595.95 110.871 597.299 110.871C598.648 110.871 599.799 111.325 600.751 112.234C601.717 113.129 602.2 114.202 602.2 115.452C602.2 116.716 601.717 117.803 600.751 118.712C599.799 119.607 598.648 120.054 597.299 120.054ZM609.087 169.273V124.273H618.036V129.77H618.441C618.838 128.889 619.414 127.994 620.167 127.085C620.934 126.162 621.928 125.395 623.15 124.784C624.385 124.159 625.919 123.847 627.752 123.847C630.138 123.847 632.34 124.472 634.357 125.722C636.374 126.957 637.986 128.825 639.194 131.325C640.401 133.811 641.005 136.929 641.005 140.679C641.005 144.33 640.415 147.412 639.236 149.926C638.071 152.426 636.48 154.322 634.463 155.615C632.461 156.893 630.216 157.533 627.73 157.533C625.969 157.533 624.471 157.241 623.235 156.659C622.013 156.077 621.012 155.345 620.23 154.464C619.449 153.57 618.853 152.668 618.441 151.759H618.164V169.273H609.087ZM617.972 140.636C617.972 142.582 618.242 144.28 618.782 145.729C619.321 147.178 620.103 148.307 621.125 149.116C622.148 149.912 623.391 150.31 624.854 150.31C626.331 150.31 627.581 149.905 628.604 149.095C629.627 148.271 630.401 147.135 630.926 145.686C631.466 144.223 631.736 142.54 631.736 140.636C631.736 138.747 631.473 137.085 630.948 135.651C630.422 134.216 629.648 133.094 628.625 132.284C627.603 131.474 626.346 131.07 624.854 131.07C623.377 131.07 622.127 131.46 621.104 132.241C620.096 133.023 619.321 134.131 618.782 135.565C618.242 137 617.972 138.69 617.972 140.636ZM656.132 138.08V157H647.056V113.364H655.877V130.047H656.26C656.999 128.115 658.192 126.602 659.84 125.509C661.488 124.401 663.554 123.847 666.04 123.847C668.313 123.847 670.294 124.344 671.985 125.338C673.689 126.318 675.01 127.732 675.948 129.578C676.9 131.411 677.368 133.605 677.354 136.162V157H668.277V137.781C668.292 135.764 667.78 134.195 666.743 133.072C665.721 131.95 664.286 131.389 662.439 131.389C661.203 131.389 660.11 131.652 659.158 132.178C658.221 132.703 657.482 133.47 656.942 134.479C656.417 135.473 656.147 136.673 656.132 138.08ZM699.412 157.639C696.045 157.639 693.148 156.957 690.719 155.594C688.304 154.216 686.443 152.27 685.136 149.756C683.83 147.227 683.176 144.237 683.176 140.786C683.176 137.419 683.83 134.464 685.136 131.922C686.443 129.379 688.283 127.398 690.655 125.977C693.041 124.557 695.839 123.847 699.05 123.847C701.209 123.847 703.219 124.195 705.08 124.891C706.955 125.572 708.588 126.602 709.98 127.98C711.386 129.358 712.48 131.091 713.261 133.179C714.043 135.253 714.433 137.682 714.433 140.466V142.959H686.798V137.334H705.889C705.889 136.027 705.605 134.869 705.037 133.861C704.469 132.852 703.68 132.064 702.672 131.496C701.678 130.913 700.52 130.622 699.199 130.622C697.821 130.622 696.599 130.942 695.534 131.581C694.483 132.206 693.659 133.051 693.062 134.116C692.466 135.168 692.161 136.339 692.146 137.632V142.98C692.146 144.599 692.445 145.999 693.041 147.178C693.652 148.357 694.511 149.266 695.619 149.905C696.727 150.544 698.041 150.864 699.561 150.864C700.57 150.864 701.493 150.722 702.331 150.438C703.169 150.153 703.886 149.727 704.483 149.159C705.08 148.591 705.534 147.895 705.847 147.071L714.241 147.625C713.815 149.642 712.942 151.403 711.621 152.909C710.314 154.401 708.624 155.565 706.55 156.403C704.49 157.227 702.111 157.639 699.412 157.639ZM720.357 157V124.273H729.156V129.983H729.497C730.094 127.952 731.095 126.418 732.501 125.381C733.908 124.33 735.527 123.804 737.359 123.804C737.814 123.804 738.304 123.832 738.83 123.889C739.355 123.946 739.817 124.024 740.214 124.124V132.178C739.788 132.05 739.199 131.936 738.446 131.837C737.693 131.737 737.004 131.688 736.379 131.688C735.044 131.688 733.851 131.979 732.8 132.561C731.763 133.129 730.939 133.925 730.328 134.947C729.732 135.97 729.433 137.149 729.433 138.484V157H720.357ZM745.078 157V113.364H773.97V120.97H754.304V131.368H772.052V138.974H754.304V157H745.078ZM780.005 157V124.273H789.082V157H780.005ZM784.565 120.054C783.215 120.054 782.058 119.607 781.092 118.712C780.14 117.803 779.664 116.716 779.664 115.452C779.664 114.202 780.14 113.129 781.092 112.234C782.058 111.325 783.215 110.871 784.565 110.871C785.914 110.871 787.065 111.325 788.016 112.234C788.982 113.129 789.465 114.202 789.465 115.452C789.465 116.716 788.982 117.803 788.016 118.712C787.065 119.607 785.914 120.054 784.565 120.054ZM805.429 113.364V157H796.353V113.364H805.429ZM827.615 157.639C824.249 157.639 821.351 156.957 818.922 155.594C816.507 154.216 814.646 152.27 813.339 149.756C812.033 147.227 811.379 144.237 811.379 140.786C811.379 137.419 812.033 134.464 813.339 131.922C814.646 129.379 816.486 127.398 818.858 125.977C821.244 124.557 824.043 123.847 827.253 123.847C829.412 123.847 831.422 124.195 833.283 124.891C835.158 125.572 836.791 126.602 838.183 127.98C839.589 129.358 840.683 131.091 841.464 133.179C842.246 135.253 842.636 137.682 842.636 140.466V142.959H815.001V137.334H834.092C834.092 136.027 833.808 134.869 833.24 133.861C832.672 132.852 831.884 132.064 830.875 131.496C829.881 130.913 828.723 130.622 827.402 130.622C826.024 130.622 824.803 130.942 823.737 131.581C822.686 132.206 821.862 133.051 821.266 134.116C820.669 135.168 820.364 136.339 820.349 137.632V142.98C820.349 144.599 820.648 145.999 821.244 147.178C821.855 148.357 822.714 149.266 823.822 149.905C824.93 150.544 826.244 150.864 827.764 150.864C828.773 150.864 829.696 150.722 830.534 150.438C831.372 150.153 832.089 149.727 832.686 149.159C833.283 148.591 833.737 147.895 834.05 147.071L842.445 147.625C842.018 149.642 841.145 151.403 839.824 152.909C838.517 154.401 836.827 155.565 834.753 156.403C832.693 157.227 830.314 157.639 827.615 157.639ZM875.79 133.605L867.48 134.116C867.338 133.406 867.033 132.767 866.564 132.199C866.095 131.616 865.477 131.155 864.71 130.814C863.957 130.459 863.055 130.281 862.004 130.281C860.598 130.281 859.412 130.58 858.446 131.176C857.48 131.759 856.997 132.54 856.997 133.52C856.997 134.301 857.31 134.962 857.935 135.501C858.56 136.041 859.632 136.474 861.152 136.801L867.075 137.994C870.257 138.648 872.629 139.699 874.192 141.148C875.754 142.597 876.536 144.5 876.536 146.858C876.536 149.003 875.903 150.885 874.639 152.504C873.389 154.124 871.67 155.388 869.483 156.297C867.31 157.192 864.803 157.639 861.962 157.639C857.629 157.639 854.178 156.737 851.607 154.933C849.05 153.115 847.551 150.643 847.111 147.518L856.038 147.05C856.308 148.371 856.962 149.379 857.999 150.075C859.036 150.757 860.364 151.098 861.983 151.098C863.574 151.098 864.852 150.793 865.818 150.182C866.798 149.557 867.295 148.754 867.31 147.774C867.295 146.95 866.947 146.276 866.266 145.75C865.584 145.21 864.533 144.798 863.112 144.514L857.445 143.385C854.249 142.746 851.869 141.638 850.307 140.061C848.759 138.484 847.984 136.474 847.984 134.031C847.984 131.929 848.553 130.118 849.689 128.598C850.839 127.078 852.452 125.906 854.526 125.082C856.614 124.259 859.057 123.847 861.855 123.847C865.989 123.847 869.241 124.72 871.614 126.467C874 128.214 875.392 130.594 875.79 133.605ZM887.556 157.554C886.15 157.554 884.943 157.057 883.934 156.062C882.94 155.054 882.443 153.847 882.443 152.44C882.443 151.048 882.94 149.855 883.934 148.861C884.943 147.866 886.15 147.369 887.556 147.369C888.92 147.369 890.113 147.866 891.136 148.861C892.159 149.855 892.67 151.048 892.67 152.44C892.67 153.378 892.429 154.237 891.946 155.018C891.477 155.786 890.859 156.403 890.092 156.872C889.325 157.327 888.48 157.554 887.556 157.554Z" fill="url(#paint1_linear_2006_344)"/>
<path d="M429.649 192.818H432.401V204.777C432.401 206.049 432.102 207.177 431.504 208.159C430.906 209.136 430.066 209.905 428.983 210.467C427.9 211.024 426.63 211.302 425.174 211.302C423.724 211.302 422.458 211.024 421.374 210.467C420.291 209.905 419.451 209.136 418.853 208.159C418.255 207.177 417.956 206.049 417.956 204.777V192.818H420.7V204.555C420.7 205.377 420.88 206.108 421.241 206.748C421.608 207.387 422.126 207.89 422.795 208.257C423.464 208.618 424.257 208.798 425.174 208.798C426.097 208.798 426.894 208.618 427.562 208.257C428.237 207.89 428.752 207.387 429.107 206.748C429.468 206.108 429.649 205.377 429.649 204.555V192.818ZM438.831 202.903V211H436.176V197.364H438.724V199.583H438.893C439.206 198.861 439.698 198.281 440.366 197.843C441.041 197.405 441.89 197.186 442.914 197.186C443.844 197.186 444.657 197.381 445.356 197.772C446.054 198.157 446.596 198.731 446.98 199.494C447.365 200.258 447.557 201.202 447.557 202.326V211H444.903V202.646C444.903 201.658 444.646 200.885 444.131 200.329C443.616 199.767 442.908 199.485 442.009 199.485C441.393 199.485 440.846 199.619 440.366 199.885C439.893 200.151 439.517 200.542 439.239 201.057C438.967 201.566 438.831 202.181 438.831 202.903ZM453.772 192.818V211H451.117V192.818H453.772ZM463.087 211.275C461.809 211.275 460.693 210.982 459.74 210.396C458.787 209.81 458.047 208.991 457.521 207.937C456.994 206.884 456.73 205.653 456.73 204.244C456.73 202.829 456.994 201.592 457.521 200.533C458.047 199.474 458.787 198.651 459.74 198.065C460.693 197.479 461.809 197.186 463.087 197.186C464.365 197.186 465.481 197.479 466.434 198.065C467.387 198.651 468.127 199.474 468.653 200.533C469.18 201.592 469.444 202.829 469.444 204.244C469.444 205.653 469.18 206.884 468.653 207.937C468.127 208.991 467.387 209.81 466.434 210.396C465.481 210.982 464.365 211.275 463.087 211.275ZM463.096 209.047C463.924 209.047 464.611 208.828 465.156 208.39C465.7 207.952 466.103 207.369 466.363 206.641C466.629 205.913 466.762 205.111 466.762 204.235C466.762 203.365 466.629 202.566 466.363 201.838C466.103 201.104 465.7 200.515 465.156 200.071C464.611 199.627 463.924 199.406 463.096 199.406C462.261 199.406 461.569 199.627 461.018 200.071C460.474 200.515 460.069 201.104 459.802 201.838C459.542 202.566 459.412 203.365 459.412 204.235C459.412 205.111 459.542 205.913 459.802 206.641C460.069 207.369 460.474 207.952 461.018 208.39C461.569 208.828 462.261 209.047 463.096 209.047ZM478.15 211.275C476.831 211.275 475.694 210.976 474.741 210.379C473.794 209.775 473.066 208.943 472.557 207.884C472.048 206.824 471.794 205.611 471.794 204.244C471.794 202.859 472.054 201.637 472.575 200.577C473.096 199.512 473.83 198.681 474.777 198.083C475.724 197.485 476.84 197.186 478.124 197.186C479.16 197.186 480.083 197.378 480.894 197.763C481.705 198.142 482.359 198.675 482.856 199.361C483.359 200.048 483.658 200.85 483.752 201.767H481.169C481.027 201.128 480.701 200.577 480.192 200.116C479.689 199.654 479.015 199.423 478.168 199.423C477.428 199.423 476.78 199.619 476.224 200.009C475.674 200.394 475.244 200.944 474.937 201.661C474.629 202.371 474.475 203.211 474.475 204.182C474.475 205.176 474.626 206.034 474.928 206.756C475.23 207.478 475.656 208.038 476.206 208.434C476.763 208.831 477.417 209.029 478.168 209.029C478.671 209.029 479.127 208.937 479.535 208.754C479.95 208.565 480.296 208.295 480.574 207.946C480.858 207.597 481.056 207.177 481.169 206.685H483.752C483.658 207.567 483.371 208.354 482.891 209.047C482.412 209.739 481.77 210.284 480.965 210.68C480.166 211.077 479.228 211.275 478.15 211.275ZM489.032 206.375L489.015 203.134H489.476L494.91 197.364H498.088L491.891 203.933H491.474L489.032 206.375ZM486.591 211V192.818H489.246V211H486.591ZM495.203 211L490.32 204.519L492.149 202.664L498.461 211H495.203ZM522.011 192.818V211H519.49L510.248 197.665H510.08V211H507.336V192.818H509.875L519.126 206.17H519.295V192.818H522.011ZM531.677 211.275C530.334 211.275 529.177 210.988 528.206 210.414C527.241 209.834 526.496 209.02 525.969 207.973C525.448 206.919 525.188 205.685 525.188 204.271C525.188 202.874 525.448 201.643 525.969 200.577C526.496 199.512 527.229 198.681 528.17 198.083C529.117 197.485 530.224 197.186 531.491 197.186C532.26 197.186 533.006 197.313 533.728 197.568C534.45 197.822 535.098 198.222 535.672 198.766C536.246 199.311 536.699 200.018 537.031 200.888C537.362 201.752 537.528 202.803 537.528 204.04V204.981H526.688V202.992H534.926C534.926 202.294 534.784 201.675 534.5 201.137C534.216 200.592 533.817 200.163 533.302 199.849C532.793 199.536 532.195 199.379 531.509 199.379C530.763 199.379 530.112 199.562 529.555 199.929C529.005 200.29 528.579 200.764 528.277 201.35C527.981 201.93 527.833 202.56 527.833 203.241V204.794C527.833 205.706 527.993 206.481 528.312 207.12C528.638 207.76 529.091 208.248 529.671 208.585C530.251 208.917 530.929 209.082 531.704 209.082C532.207 209.082 532.666 209.011 533.08 208.869C533.494 208.721 533.852 208.502 534.154 208.212C534.456 207.922 534.687 207.564 534.847 207.138L537.359 207.591C537.158 208.331 536.797 208.979 536.276 209.535C535.761 210.086 535.113 210.515 534.332 210.822C533.556 211.124 532.672 211.275 531.677 211.275ZM542.251 197.364L545.26 202.673L548.297 197.364H551.2L546.947 204.182L551.235 211H548.332L545.26 205.904L542.197 211H539.286L543.529 204.182L539.339 197.364H542.251ZM560.29 197.364V199.494H552.842V197.364H560.29ZM554.839 194.097H557.494V206.996C557.494 207.511 557.571 207.899 557.725 208.159C557.879 208.414 558.077 208.588 558.32 208.683C558.568 208.772 558.837 208.816 559.127 208.816C559.341 208.816 559.527 208.801 559.687 208.772C559.847 208.742 559.971 208.718 560.06 208.701L560.539 210.893C560.385 210.953 560.166 211.012 559.882 211.071C559.598 211.136 559.243 211.172 558.817 211.178C558.118 211.189 557.467 211.065 556.864 210.805C556.26 210.544 555.772 210.142 555.399 209.597C555.026 209.053 554.839 208.369 554.839 207.547V194.097ZM570.797 202.167V204.466H562.736V202.167H570.797ZM574.548 211V192.818H577.292V208.638H585.53V211H574.548ZM594.324 211.275C592.98 211.275 591.823 210.988 590.852 210.414C589.888 209.834 589.142 209.02 588.615 207.973C588.094 206.919 587.834 205.685 587.834 204.271C587.834 202.874 588.094 201.643 588.615 200.577C589.142 199.512 589.876 198.681 590.817 198.083C591.764 197.485 592.871 197.186 594.137 197.186C594.907 197.186 595.652 197.313 596.374 197.568C597.097 197.822 597.745 198.222 598.319 198.766C598.893 199.311 599.346 200.018 599.677 200.888C600.008 201.752 600.174 202.803 600.174 204.04V204.981H589.334V202.992H597.573C597.573 202.294 597.431 201.675 597.147 201.137C596.863 200.592 596.463 200.163 595.948 199.849C595.439 199.536 594.842 199.379 594.155 199.379C593.409 199.379 592.758 199.562 592.202 199.929C591.651 200.29 591.225 200.764 590.923 201.35C590.628 201.93 590.48 202.56 590.48 203.241V204.794C590.48 205.706 590.639 206.481 590.959 207.12C591.285 207.76 591.737 208.248 592.317 208.585C592.897 208.917 593.575 209.082 594.35 209.082C594.853 209.082 595.312 209.011 595.726 208.869C596.141 208.721 596.499 208.502 596.801 208.212C597.102 207.922 597.333 207.564 597.493 207.138L600.006 207.591C599.804 208.331 599.443 208.979 598.922 209.535C598.407 210.086 597.759 210.515 596.978 210.822C596.203 211.124 595.318 211.275 594.324 211.275ZM614.394 197.364L609.449 211H606.608L601.655 197.364H604.504L607.958 207.857H608.1L611.544 197.364H614.394ZM622.302 211.275C620.959 211.275 619.802 210.988 618.831 210.414C617.866 209.834 617.121 209.02 616.594 207.973C616.073 206.919 615.812 205.685 615.812 204.271C615.812 202.874 616.073 201.643 616.594 200.577C617.121 199.512 617.854 198.681 618.795 198.083C619.742 197.485 620.849 197.186 622.116 197.186C622.885 197.186 623.631 197.313 624.353 197.568C625.075 197.822 625.723 198.222 626.297 198.766C626.871 199.311 627.324 200.018 627.656 200.888C627.987 201.752 628.153 202.803 628.153 204.04V204.981H617.313V202.992H625.551C625.551 202.294 625.409 201.675 625.125 201.137C624.841 200.592 624.442 200.163 623.927 199.849C623.418 199.536 622.82 199.379 622.134 199.379C621.388 199.379 620.737 199.562 620.18 199.929C619.63 200.29 619.204 200.764 618.902 201.35C618.606 201.93 618.458 202.56 618.458 203.241V204.794C618.458 205.706 618.618 206.481 618.938 207.12C619.263 207.76 619.716 208.248 620.296 208.585C620.876 208.917 621.554 209.082 622.329 209.082C622.832 209.082 623.291 209.011 623.705 208.869C624.119 208.721 624.477 208.502 624.779 208.212C625.081 207.922 625.312 207.564 625.472 207.138L627.984 207.591C627.783 208.331 627.422 208.979 626.901 209.535C626.386 210.086 625.738 210.515 624.957 210.822C624.181 211.124 623.297 211.275 622.302 211.275ZM633.752 192.818V211H631.098V192.818H633.752ZM644.153 211V192.818H655.428V195.18H646.896V200.719H654.62V203.072H646.896V211H644.153ZM658.588 211V197.364H661.243V211H658.588ZM659.929 195.26C659.467 195.26 659.071 195.106 658.739 194.798C658.414 194.484 658.251 194.111 658.251 193.679C658.251 193.241 658.414 192.868 658.739 192.561C659.071 192.247 659.467 192.09 659.929 192.09C660.39 192.09 660.784 192.247 661.109 192.561C661.441 192.868 661.607 193.241 661.607 193.679C661.607 194.111 661.441 194.484 661.109 194.798C660.784 195.106 660.39 195.26 659.929 195.26ZM667.468 192.818V211H664.814V192.818H667.468ZM676.916 211.275C675.573 211.275 674.416 210.988 673.445 210.414C672.48 209.834 671.735 209.02 671.208 207.973C670.687 206.919 670.427 205.685 670.427 204.271C670.427 202.874 670.687 201.643 671.208 200.577C671.735 199.512 672.469 198.681 673.41 198.083C674.357 197.485 675.463 197.186 676.73 197.186C677.499 197.186 678.245 197.313 678.967 197.568C679.689 197.822 680.337 198.222 680.911 198.766C681.486 199.311 681.938 200.018 682.27 200.888C682.601 201.752 682.767 202.803 682.767 204.04V204.981H671.927V202.992H680.166C680.166 202.294 680.024 201.675 679.74 201.137C679.456 200.592 679.056 200.163 678.541 199.849C678.032 199.536 677.434 199.379 676.748 199.379C676.002 199.379 675.351 199.562 674.795 199.929C674.244 200.29 673.818 200.764 673.516 201.35C673.22 201.93 673.072 202.56 673.072 203.241V204.794C673.072 205.706 673.232 206.481 673.552 207.12C673.877 207.76 674.33 208.248 674.91 208.585C675.49 208.917 676.168 209.082 676.943 209.082C677.446 209.082 677.905 209.011 678.319 208.869C678.733 208.721 679.092 208.502 679.393 208.212C679.695 207.922 679.926 207.564 680.086 207.138L682.598 207.591C682.397 208.331 682.036 208.979 681.515 209.535C681 210.086 680.352 210.515 679.571 210.822C678.796 211.124 677.911 211.275 676.916 211.275ZM702.458 197.594C702.363 196.754 701.973 196.103 701.286 195.641C700.6 195.174 699.735 194.94 698.694 194.94C697.948 194.94 697.303 195.058 696.758 195.295C696.214 195.526 695.791 195.846 695.489 196.254C695.193 196.656 695.045 197.115 695.045 197.63C695.045 198.062 695.146 198.435 695.347 198.749C695.554 199.062 695.823 199.326 696.155 199.539C696.492 199.746 696.853 199.92 697.238 200.062C697.623 200.199 697.992 200.311 698.348 200.4L700.123 200.862C700.703 201.004 701.298 201.196 701.908 201.439C702.517 201.681 703.082 202.001 703.603 202.397C704.124 202.794 704.544 203.285 704.864 203.871C705.189 204.457 705.352 205.158 705.352 205.975C705.352 207.005 705.086 207.919 704.553 208.718C704.026 209.517 703.26 210.148 702.254 210.609C701.254 211.071 700.043 211.302 698.623 211.302C697.262 211.302 696.084 211.086 695.089 210.654C694.095 210.222 693.317 209.609 692.755 208.816C692.192 208.017 691.882 207.07 691.822 205.975H694.574C694.628 206.632 694.841 207.18 695.214 207.618C695.592 208.05 696.075 208.372 696.661 208.585C697.253 208.792 697.901 208.896 698.605 208.896C699.38 208.896 700.07 208.775 700.674 208.532C701.283 208.283 701.763 207.94 702.112 207.502C702.461 207.058 702.636 206.54 702.636 205.949C702.636 205.41 702.482 204.969 702.174 204.626C701.872 204.282 701.461 203.998 700.94 203.773C700.425 203.549 699.842 203.35 699.191 203.179L697.043 202.593C695.587 202.196 694.432 201.613 693.58 200.844C692.734 200.074 692.311 199.056 692.311 197.79C692.311 196.742 692.595 195.828 693.163 195.047C693.731 194.265 694.501 193.659 695.471 193.227C696.442 192.789 697.537 192.57 698.756 192.57C699.987 192.57 701.073 192.786 702.014 193.218C702.961 193.65 703.707 194.245 704.251 195.002C704.796 195.754 705.08 196.618 705.104 197.594H702.458ZM714.294 211.275C712.951 211.275 711.794 210.988 710.823 210.414C709.858 209.834 709.113 209.02 708.586 207.973C708.065 206.919 707.805 205.685 707.805 204.271C707.805 202.874 708.065 201.643 708.586 200.577C709.113 199.512 709.847 198.681 710.788 198.083C711.735 197.485 712.841 197.186 714.108 197.186C714.877 197.186 715.623 197.313 716.345 197.568C717.067 197.822 717.715 198.222 718.289 198.766C718.864 199.311 719.316 200.018 719.648 200.888C719.979 201.752 720.145 202.803 720.145 204.04V204.981H709.305V202.992H717.544C717.544 202.294 717.402 201.675 717.118 201.137C716.833 200.592 716.434 200.163 715.919 199.849C715.41 199.536 714.812 199.379 714.126 199.379C713.38 199.379 712.729 199.562 712.173 199.929C711.622 200.29 711.196 200.764 710.894 201.35C710.598 201.93 710.45 202.56 710.45 203.241V204.794C710.45 205.706 710.61 206.481 710.93 207.12C711.255 207.76 711.708 208.248 712.288 208.585C712.868 208.917 713.546 209.082 714.321 209.082C714.824 209.082 715.283 209.011 715.697 208.869C716.111 208.721 716.469 208.502 716.771 208.212C717.073 207.922 717.304 207.564 717.464 207.138L719.976 207.591C719.775 208.331 719.414 208.979 718.893 209.535C718.378 210.086 717.73 210.515 716.949 210.822C716.174 211.124 715.289 211.275 714.294 211.275ZM728.834 211.275C727.514 211.275 726.378 210.976 725.425 210.379C724.478 209.775 723.75 208.943 723.241 207.884C722.732 206.824 722.478 205.611 722.478 204.244C722.478 202.859 722.738 201.637 723.259 200.577C723.78 199.512 724.514 198.681 725.46 198.083C726.407 197.485 727.523 197.186 728.807 197.186C729.843 197.186 730.766 197.378 731.577 197.763C732.388 198.142 733.042 198.675 733.539 199.361C734.042 200.048 734.341 200.85 734.436 201.767H731.853C731.71 201.128 731.385 200.577 730.876 200.116C730.373 199.654 729.698 199.423 728.852 199.423C728.112 199.423 727.464 199.619 726.908 200.009C726.357 200.394 725.928 200.944 725.62 201.661C725.313 202.371 725.159 203.211 725.159 204.182C725.159 205.176 725.31 206.034 725.611 206.756C725.913 207.478 726.339 208.038 726.89 208.434C727.446 208.831 728.1 209.029 728.852 209.029C729.355 209.029 729.811 208.937 730.219 208.754C730.633 208.565 730.98 208.295 731.258 207.946C731.542 207.597 731.74 207.177 731.853 206.685H734.436C734.341 207.567 734.054 208.354 733.575 209.047C733.095 209.739 732.453 210.284 731.648 210.68C730.849 211.077 729.911 211.275 728.834 211.275ZM745.913 205.345V197.364H748.576V211H745.966V208.638H745.824C745.51 209.366 745.007 209.973 744.315 210.458C743.628 210.938 742.773 211.178 741.749 211.178C740.873 211.178 740.098 210.985 739.423 210.6C738.754 210.21 738.228 209.633 737.843 208.869C737.464 208.106 737.275 207.162 737.275 206.037V197.364H739.929V205.718C739.929 206.647 740.187 207.387 740.702 207.937C741.216 208.488 741.885 208.763 742.708 208.763C743.205 208.763 743.699 208.638 744.191 208.39C744.688 208.141 745.099 207.766 745.425 207.262C745.756 206.759 745.919 206.12 745.913 205.345ZM752.143 211V197.364H754.709V199.53H754.851C755.099 198.796 755.537 198.219 756.165 197.799C756.798 197.373 757.514 197.159 758.313 197.159C758.479 197.159 758.674 197.165 758.899 197.177C759.13 197.189 759.31 197.204 759.44 197.222V199.761C759.334 199.731 759.145 199.699 758.872 199.663C758.6 199.622 758.328 199.601 758.055 199.601C757.428 199.601 756.869 199.734 756.378 200C755.892 200.261 755.508 200.625 755.223 201.092C754.939 201.554 754.797 202.081 754.797 202.673V211H752.143ZM761.738 211V197.364H764.392V211H761.738ZM763.078 195.26C762.616 195.26 762.22 195.106 761.888 194.798C761.563 194.484 761.4 194.111 761.4 193.679C761.4 193.241 761.563 192.868 761.888 192.561C762.22 192.247 762.616 192.09 763.078 192.09C763.54 192.09 763.933 192.247 764.259 192.561C764.59 192.868 764.756 193.241 764.756 193.679C764.756 194.111 764.59 194.484 764.259 194.798C763.933 195.106 763.54 195.26 763.078 195.26ZM774.329 197.364V199.494H766.88V197.364H774.329ZM768.878 194.097H771.532V206.996C771.532 207.511 771.609 207.899 771.763 208.159C771.917 208.414 772.115 208.588 772.358 208.683C772.606 208.772 772.876 208.816 773.166 208.816C773.379 208.816 773.565 208.801 773.725 208.772C773.885 208.742 774.009 208.718 774.098 208.701L774.577 210.893C774.423 210.953 774.204 211.012 773.92 211.071C773.636 211.136 773.281 211.172 772.855 211.178C772.156 211.189 771.505 211.065 770.902 210.805C770.298 210.544 769.81 210.142 769.437 209.597C769.064 209.053 768.878 208.369 768.878 207.547V194.097ZM778.943 216.114C778.546 216.114 778.185 216.081 777.86 216.016C777.534 215.957 777.292 215.892 777.132 215.821L777.771 213.646C778.256 213.776 778.688 213.832 779.067 213.814C779.446 213.797 779.78 213.654 780.07 213.388C780.366 213.122 780.627 212.687 780.852 212.083L781.18 211.178L776.191 197.364H779.032L782.485 207.946H782.627L786.081 197.364H788.93L783.311 212.82C783.05 213.53 782.719 214.131 782.316 214.622C781.914 215.119 781.435 215.492 780.878 215.741C780.322 215.989 779.677 216.114 778.943 216.114ZM800.998 211L796.985 197.364H799.728L802.4 207.378H802.533L805.215 197.364H807.958L810.621 207.333H810.754L813.409 197.364H816.152L812.148 211H809.44L806.671 201.154H806.466L803.696 211H800.998ZM818.671 211V197.364H821.326V211H818.671ZM820.012 195.26C819.55 195.26 819.154 195.106 818.822 194.798C818.497 194.484 818.334 194.111 818.334 193.679C818.334 193.241 818.497 192.868 818.822 192.561C819.154 192.247 819.55 192.09 820.012 192.09C820.473 192.09 820.867 192.247 821.192 192.561C821.524 192.868 821.69 193.241 821.69 193.679C821.69 194.111 821.524 194.484 821.192 194.798C820.867 195.106 820.473 195.26 820.012 195.26ZM831.262 197.364V199.494H823.814V197.364H831.262ZM825.811 194.097H828.466V206.996C828.466 207.511 828.543 207.899 828.696 208.159C828.85 208.414 829.049 208.588 829.291 208.683C829.54 208.772 829.809 208.816 830.099 208.816C830.312 208.816 830.499 208.801 830.658 208.772C830.818 208.742 830.943 208.718 831.031 208.701L831.511 210.893C831.357 210.953 831.138 211.012 830.854 211.071C830.57 211.136 830.215 211.172 829.788 211.178C829.09 211.189 828.439 211.065 827.835 210.805C827.232 210.544 826.743 210.142 826.37 209.597C825.998 209.053 825.811 208.369 825.811 207.547V194.097ZM837.146 202.903V211H834.491V192.818H837.11V199.583H837.279C837.599 198.849 838.087 198.266 838.744 197.834C839.401 197.402 840.259 197.186 841.319 197.186C842.254 197.186 843.07 197.378 843.769 197.763C844.473 198.148 845.018 198.722 845.402 199.485C845.793 200.243 845.988 201.19 845.988 202.326V211H843.334V202.646C843.334 201.646 843.076 200.87 842.561 200.32C842.047 199.764 841.33 199.485 840.413 199.485C839.786 199.485 839.223 199.619 838.726 199.885C838.235 200.151 837.847 200.542 837.563 201.057C837.285 201.566 837.146 202.181 837.146 202.903ZM872.153 201.909C872.153 203.85 871.798 205.519 871.088 206.916C870.378 208.307 869.404 209.378 868.167 210.13C866.936 210.876 865.537 211.249 863.968 211.249C862.394 211.249 860.988 210.876 859.751 210.13C858.52 209.378 857.549 208.304 856.839 206.907C856.129 205.511 855.774 203.844 855.774 201.909C855.774 199.968 856.129 198.302 856.839 196.911C857.549 195.514 858.52 194.443 859.751 193.697C860.988 192.945 862.394 192.57 863.968 192.57C865.537 192.57 866.936 192.945 868.167 193.697C869.404 194.443 870.378 195.514 871.088 196.911C871.798 198.302 872.153 199.968 872.153 201.909ZM869.437 201.909C869.437 200.429 869.197 199.184 868.718 198.172C868.244 197.154 867.593 196.384 866.765 195.863C865.942 195.337 865.01 195.073 863.968 195.073C862.921 195.073 861.985 195.337 861.163 195.863C860.34 196.384 859.689 197.154 859.21 198.172C858.736 199.184 858.499 200.429 858.499 201.909C858.499 203.389 858.736 204.638 859.21 205.656C859.689 206.668 860.34 207.437 861.163 207.964C861.985 208.485 862.921 208.745 863.968 208.745C865.01 208.745 865.942 208.485 866.765 207.964C867.593 207.437 868.244 206.668 868.718 205.656C869.197 204.638 869.437 203.389 869.437 201.909ZM883.999 205.345V197.364H886.662V211H884.052V208.638H883.91C883.596 209.366 883.093 209.973 882.401 210.458C881.714 210.938 880.859 211.178 879.835 211.178C878.959 211.178 878.184 210.985 877.509 210.6C876.84 210.21 876.314 209.633 875.929 208.869C875.55 208.106 875.361 207.162 875.361 206.037V197.364H878.015V205.718C878.015 206.647 878.273 207.387 878.787 207.937C879.302 208.488 879.971 208.763 880.794 208.763C881.291 208.763 881.785 208.638 882.276 208.39C882.774 208.141 883.185 207.766 883.51 207.262C883.842 206.759 884.005 206.12 883.999 205.345ZM890.229 211V197.364H892.794V199.53H892.937C893.185 198.796 893.623 198.219 894.25 197.799C894.884 197.373 895.6 197.159 896.399 197.159C896.565 197.159 896.76 197.165 896.985 197.177C897.216 197.189 897.396 197.204 897.526 197.222V199.761C897.42 199.731 897.23 199.699 896.958 199.663C896.686 199.622 896.414 199.601 896.141 199.601C895.514 199.601 894.955 199.734 894.464 200C893.978 200.261 893.593 200.625 893.309 201.092C893.025 201.554 892.883 202.081 892.883 202.673V211H890.229ZM908.189 211H905.277L911.82 192.818H914.989L921.532 211H918.62L913.48 196.121H913.338L908.189 211ZM908.677 203.88H918.123V206.188H908.677V203.88ZM928.83 211.266C927.729 211.266 926.746 210.985 925.882 210.423C925.024 209.855 924.349 209.047 923.858 207.999C923.373 206.946 923.13 205.682 923.13 204.208C923.13 202.735 923.376 201.474 923.867 200.426C924.364 199.379 925.045 198.577 925.909 198.021C926.773 197.464 927.752 197.186 928.847 197.186C929.694 197.186 930.374 197.328 930.889 197.612C931.41 197.89 931.813 198.216 932.097 198.589C932.387 198.962 932.612 199.29 932.771 199.574H932.931V192.818H935.586V211H932.993V208.878H932.771C932.612 209.168 932.381 209.5 932.079 209.873C931.783 210.245 931.375 210.571 930.854 210.849C930.333 211.127 929.658 211.266 928.83 211.266ZM929.416 209.002C930.179 209.002 930.824 208.801 931.351 208.399C931.884 207.99 932.286 207.425 932.558 206.703C932.836 205.981 932.976 205.141 932.976 204.182C932.976 203.235 932.839 202.406 932.567 201.696C932.295 200.986 931.895 200.432 931.369 200.036C930.842 199.639 930.191 199.441 929.416 199.441C928.617 199.441 927.951 199.648 927.418 200.062C926.885 200.477 926.483 201.042 926.211 201.758C925.944 202.474 925.811 203.282 925.811 204.182C925.811 205.093 925.947 205.913 926.22 206.641C926.492 207.369 926.894 207.946 927.427 208.372C927.966 208.792 928.628 209.002 929.416 209.002ZM951.04 197.364L946.095 211H943.254L938.3 197.364H941.15L944.603 207.857H944.745L948.19 197.364H951.04ZM957.112 211.302C956.248 211.302 955.467 211.142 954.768 210.822C954.07 210.497 953.517 210.026 953.108 209.411C952.706 208.795 952.505 208.041 952.505 207.147C952.505 206.378 952.653 205.744 952.949 205.247C953.244 204.75 953.644 204.356 954.147 204.066C954.65 203.776 955.212 203.557 955.834 203.409C956.455 203.261 957.089 203.149 957.734 203.072C958.55 202.977 959.213 202.9 959.722 202.841C960.231 202.776 960.601 202.673 960.832 202.531C961.063 202.388 961.178 202.158 961.178 201.838V201.776C961.178 201.001 960.959 200.4 960.521 199.974C960.089 199.548 959.444 199.335 958.586 199.335C957.692 199.335 956.988 199.533 956.473 199.929C955.964 200.32 955.612 200.755 955.417 201.234L952.922 200.666C953.218 199.838 953.65 199.169 954.218 198.66C954.792 198.145 955.452 197.772 956.198 197.541C956.944 197.304 957.728 197.186 958.55 197.186C959.095 197.186 959.672 197.251 960.282 197.381C960.897 197.506 961.471 197.737 962.004 198.074C962.542 198.411 962.983 198.894 963.327 199.521C963.67 200.142 963.842 200.95 963.842 201.945V211H961.249V209.136H961.143C960.971 209.479 960.714 209.816 960.37 210.148C960.027 210.479 959.586 210.754 959.048 210.973C958.509 211.192 957.864 211.302 957.112 211.302ZM957.689 209.171C958.423 209.171 959.051 209.026 959.571 208.736C960.098 208.446 960.498 208.067 960.77 207.6C961.048 207.126 961.187 206.62 961.187 206.082V204.324C961.092 204.419 960.909 204.507 960.637 204.59C960.37 204.667 960.066 204.735 959.722 204.794C959.379 204.848 959.045 204.898 958.719 204.945C958.394 204.987 958.121 205.022 957.902 205.052C957.387 205.117 956.917 205.226 956.491 205.38C956.071 205.534 955.733 205.756 955.479 206.046C955.23 206.33 955.106 206.709 955.106 207.183C955.106 207.839 955.348 208.337 955.834 208.674C956.319 209.005 956.938 209.171 957.689 209.171ZM970.032 202.903V211H967.377V197.364H969.925V199.583H970.094C970.408 198.861 970.899 198.281 971.568 197.843C972.242 197.405 973.092 197.186 974.116 197.186C975.045 197.186 975.859 197.381 976.557 197.772C977.255 198.157 977.797 198.731 978.182 199.494C978.566 200.258 978.759 201.202 978.759 202.326V211H976.104V202.646C976.104 201.658 975.847 200.885 975.332 200.329C974.817 199.767 974.11 199.485 973.21 199.485C972.594 199.485 972.047 199.619 971.568 199.885C971.094 200.151 970.718 200.542 970.44 201.057C970.168 201.566 970.032 202.181 970.032 202.903ZM988.063 211.275C986.743 211.275 985.606 210.976 984.653 210.379C983.707 209.775 982.979 208.943 982.47 207.884C981.961 206.824 981.706 205.611 981.706 204.244C981.706 202.859 981.966 201.637 982.487 200.577C983.008 199.512 983.742 198.681 984.689 198.083C985.636 197.485 986.752 197.186 988.036 197.186C989.072 197.186 989.995 197.378 990.806 197.763C991.617 198.142 992.271 198.675 992.768 199.361C993.271 200.048 993.57 200.85 993.665 201.767H991.081C990.939 201.128 990.613 200.577 990.104 200.116C989.601 199.654 988.927 199.423 988.08 199.423C987.341 199.423 986.692 199.619 986.136 200.009C985.586 200.394 985.157 200.944 984.849 201.661C984.541 202.371 984.387 203.211 984.387 204.182C984.387 205.176 984.538 206.034 984.84 206.756C985.142 207.478 985.568 208.038 986.118 208.434C986.675 208.831 987.329 209.029 988.08 209.029C988.583 209.029 989.039 208.937 989.448 208.754C989.862 208.565 990.208 208.295 990.486 207.946C990.77 207.597 990.969 207.177 991.081 206.685H993.665C993.57 207.567 993.283 208.354 992.803 209.047C992.324 209.739 991.682 210.284 990.877 210.68C990.078 211.077 989.14 211.275 988.063 211.275ZM1002.38 211.275C1001.04 211.275 999.88 210.988 998.909 210.414C997.944 209.834 997.199 209.02 996.672 207.973C996.151 206.919 995.891 205.685 995.891 204.271C995.891 202.874 996.151 201.643 996.672 200.577C997.199 199.512 997.933 198.681 998.874 198.083C999.821 197.485 1000.93 197.186 1002.19 197.186C1002.96 197.186 1003.71 197.313 1004.43 197.568C1005.15 197.822 1005.8 198.222 1006.38 198.766C1006.95 199.311 1007.4 200.018 1007.73 200.888C1008.07 201.752 1008.23 202.803 1008.23 204.04V204.981H997.391V202.992H1005.63C1005.63 202.294 1005.49 201.675 1005.2 201.137C1004.92 200.592 1004.52 200.163 1004 199.849C1003.5 199.536 1002.9 199.379 1002.21 199.379C1001.47 199.379 1000.81 199.562 1000.26 199.929C999.708 200.29 999.282 200.764 998.98 201.35C998.684 201.93 998.536 202.56 998.536 203.241V204.794C998.536 205.706 998.696 206.481 999.016 207.12C999.341 207.76 999.794 208.248 1000.37 208.585C1000.95 208.917 1001.63 209.082 1002.41 209.082C1002.91 209.082 1003.37 209.011 1003.78 208.869C1004.2 208.721 1004.56 208.502 1004.86 208.212C1005.16 207.922 1005.39 207.564 1005.55 207.138L1008.06 207.591C1007.86 208.331 1007.5 208.979 1006.98 209.535C1006.46 210.086 1005.82 210.515 1005.03 210.822C1004.26 211.124 1003.37 211.275 1002.38 211.275ZM1016.28 211.266C1015.18 211.266 1014.2 210.985 1013.33 210.423C1012.48 209.855 1011.8 209.047 1011.31 207.999C1010.82 206.946 1010.58 205.682 1010.58 204.208C1010.58 202.735 1010.83 201.474 1011.32 200.426C1011.82 199.379 1012.5 198.577 1013.36 198.021C1014.22 197.464 1015.2 197.186 1016.3 197.186C1017.14 197.186 1017.83 197.328 1018.34 197.612C1018.86 197.89 1019.26 198.216 1019.55 198.589C1019.84 198.962 1020.06 199.29 1020.22 199.574H1020.38V192.818H1023.04V211H1020.44V208.878H1020.22C1020.06 209.168 1019.83 209.5 1019.53 209.873C1019.23 210.245 1018.83 210.571 1018.3 210.849C1017.78 211.127 1017.11 211.266 1016.28 211.266ZM1016.87 209.002C1017.63 209.002 1018.28 208.801 1018.8 208.399C1019.33 207.99 1019.74 207.425 1020.01 206.703C1020.29 205.981 1020.43 205.141 1020.43 204.182C1020.43 203.235 1020.29 202.406 1020.02 201.696C1019.75 200.986 1019.35 200.432 1018.82 200.036C1018.29 199.639 1017.64 199.441 1016.87 199.441C1016.07 199.441 1015.4 199.648 1014.87 200.062C1014.34 200.477 1013.93 201.042 1013.66 201.758C1013.4 202.474 1013.26 203.282 1013.26 204.182C1013.26 205.093 1013.4 205.913 1013.67 206.641C1013.94 207.369 1014.35 207.946 1014.88 208.372C1015.42 208.792 1016.08 209.002 1016.87 209.002ZM600.391 241V222.818H611.79V225.18H603.134V230.719H611.195V233.072H603.134V238.638H611.896V241H600.391ZM617.895 232.903V241H615.241V227.364H617.789V229.583H617.958C618.271 228.861 618.763 228.281 619.431 227.843C620.106 227.405 620.955 227.186 621.979 227.186C622.908 227.186 623.722 227.381 624.421 227.772C625.119 228.157 625.661 228.731 626.045 229.494C626.43 230.258 626.622 231.202 626.622 232.326V241H623.968V232.646C623.968 231.658 623.71 230.885 623.196 230.329C622.681 229.767 621.973 229.485 621.074 229.485C620.458 229.485 619.911 229.619 619.431 229.885C618.958 230.151 618.582 230.542 618.304 231.057C618.032 231.566 617.895 232.181 617.895 232.903ZM635.926 241.275C634.607 241.275 633.47 240.976 632.517 240.379C631.57 239.775 630.842 238.943 630.333 237.884C629.824 236.824 629.57 235.611 629.57 234.244C629.57 232.859 629.83 231.637 630.351 230.577C630.872 229.512 631.606 228.681 632.553 228.083C633.5 227.485 634.615 227.186 635.9 227.186C636.935 227.186 637.859 227.378 638.67 227.763C639.48 228.142 640.134 228.675 640.632 229.361C641.135 230.048 641.434 230.85 641.528 231.767H638.945C638.803 231.128 638.477 230.577 637.968 230.116C637.465 229.654 636.79 229.423 635.944 229.423C635.204 229.423 634.556 229.619 634 230.009C633.449 230.394 633.02 230.944 632.713 231.661C632.405 232.371 632.251 233.211 632.251 234.182C632.251 235.176 632.402 236.034 632.704 236.756C633.006 237.478 633.432 238.038 633.982 238.434C634.538 238.831 635.192 239.029 635.944 239.029C636.447 239.029 636.903 238.937 637.311 238.754C637.726 238.565 638.072 238.295 638.35 237.946C638.634 237.597 638.832 237.177 638.945 236.685H641.528C641.434 237.567 641.147 238.354 640.667 239.047C640.188 239.739 639.546 240.284 638.741 240.68C637.942 241.077 637.004 241.275 635.926 241.275ZM644.367 241V227.364H646.933V229.53H647.075C647.323 228.796 647.761 228.219 648.389 227.799C649.022 227.373 649.738 227.159 650.537 227.159C650.703 227.159 650.898 227.165 651.123 227.177C651.354 227.189 651.534 227.204 651.665 227.222V229.761C651.558 229.731 651.369 229.699 651.096 229.663C650.824 229.622 650.552 229.601 650.28 229.601C649.652 229.601 649.093 229.734 648.602 230C648.116 230.261 647.732 230.625 647.448 231.092C647.163 231.554 647.021 232.081 647.021 232.673V241H644.367ZM656.055 246.114C655.658 246.114 655.297 246.081 654.972 246.016C654.646 245.957 654.403 245.892 654.244 245.821L654.883 243.646C655.368 243.776 655.8 243.832 656.179 243.814C656.558 243.797 656.892 243.654 657.182 243.388C657.478 243.122 657.738 242.687 657.963 242.083L658.292 241.178L653.303 227.364H656.143L659.597 237.946H659.739L663.192 227.364H666.042L660.423 242.82C660.162 243.53 659.831 244.131 659.428 244.622C659.026 245.119 658.546 245.492 657.99 245.741C657.434 245.989 656.789 246.114 656.055 246.114ZM668.537 246.114V227.364H671.129V229.574H671.351C671.505 229.29 671.727 228.962 672.017 228.589C672.307 228.216 672.709 227.89 673.224 227.612C673.739 227.328 674.42 227.186 675.266 227.186C676.367 227.186 677.35 227.464 678.214 228.021C679.078 228.577 679.756 229.379 680.247 230.426C680.744 231.474 680.992 232.735 680.992 234.208C680.992 235.682 680.747 236.946 680.256 237.999C679.764 239.047 679.09 239.855 678.231 240.423C677.373 240.985 676.394 241.266 675.293 241.266C674.464 241.266 673.787 241.127 673.26 240.849C672.739 240.571 672.331 240.245 672.035 239.873C671.739 239.5 671.511 239.168 671.351 238.878H671.191V246.114H668.537ZM671.138 234.182C671.138 235.141 671.277 235.981 671.555 236.703C671.834 237.425 672.236 237.99 672.763 238.399C673.289 238.801 673.935 239.002 674.698 239.002C675.491 239.002 676.154 238.792 676.687 238.372C677.219 237.946 677.622 237.369 677.894 236.641C678.172 235.913 678.311 235.093 678.311 234.182C678.311 233.282 678.175 232.474 677.903 231.758C677.637 231.042 677.234 230.477 676.696 230.062C676.163 229.648 675.497 229.441 674.698 229.441C673.929 229.441 673.278 229.639 672.745 230.036C672.218 230.432 671.819 230.986 671.546 231.696C671.274 232.406 671.138 233.235 671.138 234.182ZM690.332 227.364V229.494H682.883V227.364H690.332ZM684.881 224.097H687.535V236.996C687.535 237.511 687.612 237.899 687.766 238.159C687.92 238.414 688.118 238.588 688.361 238.683C688.61 238.772 688.879 238.816 689.169 238.816C689.382 238.816 689.568 238.801 689.728 238.772C689.888 238.742 690.012 238.718 690.101 238.701L690.581 240.893C690.427 240.953 690.208 241.012 689.924 241.071C689.64 241.136 689.284 241.172 688.858 241.178C688.16 241.189 687.509 241.065 686.905 240.805C686.301 240.544 685.813 240.142 685.44 239.597C685.067 239.053 684.881 238.369 684.881 237.547V224.097ZM693.268 241V227.364H695.923V241H693.268ZM694.609 225.26C694.147 225.26 693.751 225.106 693.419 224.798C693.094 224.484 692.931 224.111 692.931 223.679C692.931 223.241 693.094 222.868 693.419 222.561C693.751 222.247 694.147 222.09 694.609 222.09C695.071 222.09 695.464 222.247 695.79 222.561C696.121 222.868 696.287 223.241 696.287 223.679C696.287 224.111 696.121 224.484 695.79 224.798C695.464 225.106 695.071 225.26 694.609 225.26ZM705.238 241.275C703.959 241.275 702.844 240.982 701.891 240.396C700.938 239.81 700.198 238.991 699.671 237.937C699.145 236.884 698.881 235.653 698.881 234.244C698.881 232.829 699.145 231.592 699.671 230.533C700.198 229.474 700.938 228.651 701.891 228.065C702.844 227.479 703.959 227.186 705.238 227.186C706.516 227.186 707.632 227.479 708.585 228.065C709.538 228.651 710.278 229.474 710.804 230.533C711.331 231.592 711.594 232.829 711.594 234.244C711.594 235.653 711.331 236.884 710.804 237.937C710.278 238.991 709.538 239.81 708.585 240.396C707.632 240.982 706.516 241.275 705.238 241.275ZM705.247 239.047C706.075 239.047 706.762 238.828 707.306 238.39C707.851 237.952 708.253 237.369 708.514 236.641C708.78 235.913 708.913 235.111 708.913 234.235C708.913 233.365 708.78 232.566 708.514 231.838C708.253 231.104 707.851 230.515 707.306 230.071C706.762 229.627 706.075 229.406 705.247 229.406C704.412 229.406 703.72 229.627 703.169 230.071C702.625 230.515 702.219 231.104 701.953 231.838C701.693 232.566 701.562 233.365 701.562 234.235C701.562 235.111 701.693 235.913 701.953 236.641C702.219 237.369 702.625 237.952 703.169 238.39C703.72 238.828 704.412 239.047 705.247 239.047ZM717.212 232.903V241H714.557V227.364H717.105V229.583H717.274C717.588 228.861 718.079 228.281 718.748 227.843C719.422 227.405 720.272 227.186 721.296 227.186C722.225 227.186 723.039 227.381 723.737 227.772C724.435 228.157 724.977 228.731 725.362 229.494C725.746 230.258 725.939 231.202 725.939 232.326V241H723.284V232.646C723.284 231.658 723.027 230.885 722.512 230.329C721.997 229.767 721.29 229.485 720.39 229.485C719.775 229.485 719.227 229.619 718.748 229.885C718.274 230.151 717.898 230.542 717.62 231.057C717.348 231.566 717.212 232.181 717.212 232.903ZM736.328 241V222.818H742.809C744.223 222.818 745.395 223.076 746.325 223.591C747.254 224.105 747.949 224.81 748.411 225.703C748.872 226.591 749.103 227.592 749.103 228.704C749.103 229.823 748.87 230.829 748.402 231.723C747.94 232.61 747.242 233.315 746.307 233.836C745.378 234.35 744.209 234.608 742.8 234.608H738.343V232.282H742.551C743.445 232.282 744.17 232.128 744.727 231.82C745.283 231.507 745.691 231.08 745.952 230.542C746.212 230.003 746.342 229.391 746.342 228.704C746.342 228.018 746.212 227.408 745.952 226.875C745.691 226.343 745.28 225.925 744.718 225.624C744.161 225.322 743.427 225.171 742.516 225.171H739.071V241H736.328ZM754.761 222.818V241H752.106V222.818H754.761ZM762.3 241.302C761.436 241.302 760.655 241.142 759.956 240.822C759.258 240.497 758.705 240.026 758.296 239.411C757.894 238.795 757.693 238.041 757.693 237.147C757.693 236.378 757.841 235.744 758.136 235.247C758.432 234.75 758.832 234.356 759.335 234.066C759.838 233.776 760.4 233.557 761.022 233.409C761.643 233.261 762.277 233.149 762.922 233.072C763.738 232.977 764.401 232.9 764.91 232.841C765.419 232.776 765.789 232.673 766.02 232.531C766.251 232.388 766.366 232.158 766.366 231.838V231.776C766.366 231.001 766.147 230.4 765.709 229.974C765.277 229.548 764.632 229.335 763.774 229.335C762.88 229.335 762.176 229.533 761.661 229.929C761.152 230.32 760.8 230.755 760.605 231.234L758.11 230.666C758.406 229.838 758.838 229.169 759.406 228.66C759.98 228.145 760.64 227.772 761.386 227.541C762.132 227.304 762.916 227.186 763.738 227.186C764.283 227.186 764.86 227.251 765.47 227.381C766.085 227.506 766.659 227.737 767.192 228.074C767.73 228.411 768.171 228.894 768.515 229.521C768.858 230.142 769.03 230.95 769.03 231.945V241H766.437V239.136H766.331C766.159 239.479 765.902 239.816 765.558 240.148C765.215 240.479 764.774 240.754 764.236 240.973C763.697 241.192 763.052 241.302 762.3 241.302ZM762.877 239.171C763.611 239.171 764.239 239.026 764.759 238.736C765.286 238.446 765.686 238.067 765.958 237.6C766.236 237.126 766.375 236.62 766.375 236.082V234.324C766.28 234.419 766.097 234.507 765.825 234.59C765.558 234.667 765.254 234.735 764.91 234.794C764.567 234.848 764.233 234.898 763.907 234.945C763.582 234.987 763.309 235.022 763.09 235.052C762.575 235.117 762.105 235.226 761.679 235.38C761.259 235.534 760.921 235.756 760.667 236.046C760.418 236.33 760.294 236.709 760.294 237.183C760.294 237.839 760.536 238.337 761.022 238.674C761.507 239.005 762.126 239.171 762.877 239.171ZM778.931 227.364V229.494H771.482V227.364H778.931ZM773.48 224.097H776.134V236.996C776.134 237.511 776.211 237.899 776.365 238.159C776.519 238.414 776.717 238.588 776.96 238.683C777.208 238.772 777.478 238.816 777.768 238.816C777.981 238.816 778.167 238.801 778.327 238.772C778.487 238.742 778.611 238.718 778.7 238.701L779.179 240.893C779.025 240.953 778.806 241.012 778.522 241.071C778.238 241.136 777.883 241.172 777.457 241.178C776.759 241.189 776.107 241.065 775.504 240.805C774.9 240.544 774.412 240.142 774.039 239.597C773.666 239.053 773.48 238.369 773.48 237.547V224.097ZM788.357 227.364V229.494H780.651V227.364H788.357ZM782.764 241V225.783C782.764 224.931 782.95 224.224 783.323 223.662C783.696 223.093 784.19 222.67 784.806 222.392C785.421 222.108 786.09 221.966 786.812 221.966C787.345 221.966 787.8 222.01 788.179 222.099C788.558 222.182 788.839 222.259 789.023 222.33L788.401 224.478C788.277 224.443 788.117 224.401 787.922 224.354C787.726 224.301 787.49 224.274 787.211 224.274C786.566 224.274 786.105 224.434 785.826 224.754C785.554 225.073 785.418 225.535 785.418 226.138V241H782.764ZM796.302 241.275C795.024 241.275 793.908 240.982 792.955 240.396C792.003 239.81 791.263 238.991 790.736 237.937C790.209 236.884 789.946 235.653 789.946 234.244C789.946 232.829 790.209 231.592 790.736 230.533C791.263 229.474 792.003 228.651 792.955 228.065C793.908 227.479 795.024 227.186 796.302 227.186C797.581 227.186 798.696 227.479 799.649 228.065C800.602 228.651 801.342 229.474 801.869 230.533C802.395 231.592 802.659 232.829 802.659 234.244C802.659 235.653 802.395 236.884 801.869 237.937C801.342 238.991 800.602 239.81 799.649 240.396C798.696 240.982 797.581 241.275 796.302 241.275ZM796.311 239.047C797.14 239.047 797.826 238.828 798.371 238.39C798.915 237.952 799.318 237.369 799.578 236.641C799.845 235.913 799.978 235.111 799.978 234.235C799.978 233.365 799.845 232.566 799.578 231.838C799.318 231.104 798.915 230.515 798.371 230.071C797.826 229.627 797.14 229.406 796.311 229.406C795.477 229.406 794.784 229.627 794.234 230.071C793.689 230.515 793.284 231.104 793.018 231.838C792.757 232.566 792.627 233.365 792.627 234.235C792.627 235.111 792.757 235.913 793.018 236.641C793.284 237.369 793.689 237.952 794.234 238.39C794.784 238.828 795.477 239.047 796.311 239.047ZM805.622 241V227.364H808.188V229.53H808.33C808.578 228.796 809.016 228.219 809.644 227.799C810.277 227.373 810.993 227.159 811.792 227.159C811.958 227.159 812.153 227.165 812.378 227.177C812.609 227.189 812.789 227.204 812.919 227.222V229.761C812.813 229.731 812.624 229.699 812.351 229.663C812.079 229.622 811.807 229.601 811.534 229.601C810.907 229.601 810.348 229.734 809.857 230C809.371 230.261 808.987 230.625 808.702 231.092C808.418 231.554 808.276 232.081 808.276 232.673V241H805.622ZM815.217 241V227.364H817.765V229.583H817.933C818.217 228.831 818.682 228.246 819.327 227.825C819.972 227.399 820.745 227.186 821.644 227.186C822.556 227.186 823.319 227.399 823.935 227.825C824.556 228.251 825.015 228.837 825.311 229.583H825.453C825.778 228.855 826.296 228.275 827.006 227.843C827.717 227.405 828.563 227.186 829.545 227.186C830.782 227.186 831.792 227.574 832.573 228.349C833.36 229.124 833.754 230.293 833.754 231.856V241H831.099V232.104C831.099 231.181 830.847 230.512 830.344 230.098C829.841 229.684 829.241 229.477 828.542 229.477C827.678 229.477 827.006 229.743 826.527 230.276C826.048 230.802 825.808 231.48 825.808 232.309V241H823.162V231.936C823.162 231.196 822.931 230.601 822.47 230.151C822.008 229.701 821.407 229.477 820.668 229.477C820.164 229.477 819.7 229.61 819.274 229.876C818.854 230.136 818.513 230.5 818.253 230.968C817.998 231.436 817.871 231.977 817.871 232.593V241H815.217ZM839.06 241.169C838.575 241.169 838.158 240.997 837.808 240.654C837.459 240.305 837.285 239.884 837.285 239.393C837.285 238.908 837.459 238.493 837.808 238.15C838.158 237.801 838.575 237.626 839.06 237.626C839.546 237.626 839.963 237.801 840.312 238.15C840.661 238.493 840.836 238.908 840.836 239.393C840.836 239.719 840.753 240.018 840.587 240.29C840.427 240.556 840.214 240.769 839.948 240.929C839.682 241.089 839.386 241.169 839.06 241.169Z" fill="white"/>
<defs>
<radialGradient id="paint0_radial_2006_344" cx="0" cy="0" r="1" gradientUnits="userSpaceOnUse" gradientTransform="translate(720 368) rotate(-90) scale(368 609.524)">
<stop offset="0.00569549" stop-color="#4623D2"/>
<stop offset="0.00579548" stop-color="#7C4EFF" stop-opacity="0.3"/>
<stop offset="0.26" stop-color="#7C4FFF"/>
<stop offset="0.53" stop-color="#2D1297"/>
<stop offset="0.885"/>
<stop offset="1"/>
</radialGradient>
<linearGradient id="paint1_linear_2006_344" x1="544" y1="99" x2="895.978" y2="176.632" gradientUnits="userSpaceOnUse">
<stop stop-color="#FF833D"/>
<stop offset="0.28" stop-color="#DE0000"/>
<stop offset="0.718401" stop-color="#4C01EC"/>
<stop offset="0.960387" stop-color="#DA48FF"/>
</linearGradient>
</defs>
</svg>
